<?xml version="1.0" standalone="no"?>
<!DOCTYPE svg PUBLIC "-//W3C//DTD SVG 20010904//EN"
 "http://www.w3.org/TR/2001/REC-SVG-20010904/DTD/svg10.dtd">
<svg version="1.0" xmlns="http://www.w3.org/2000/svg"
 width="700.000000pt" height="700.000000pt" viewBox="0 0 700.000000 700.000000"
 preserveAspectRatio="xMidYMid meet">
<metadata>
Created by potrace 1.14, written by Peter Selinger 2001-2017
</metadata>
<g transform="translate(0.000000,700.000000) scale(0.100000,-0.100000)"
fill="#000000" stroke="none">
<path d="M5735 6607 c-50 -45 -122 -109 -159 -142 -64 -56 -101 -89 -151 -134
-11 -10 -65 -57 -120 -106 -151 -133 -162 -143 -275 -245 -267 -242 -679 -645
-906 -887 -153 -162 -236 -252 -339 -368 -123 -137 -185 -206 -233 -257 -25
-26 -51 -56 -58 -67 -13 -18 -15 -18 -66 8 -221 114 -680 348 -908 461 -236
118 -361 177 -667 316 -176 80 -614 253 -943 375 -118 43 -237 88 -265 98
-127 49 -409 150 -412 147 -2 -1 41 -32 94 -69 54 -36 177 -119 273 -186 205
-141 451 -308 496 -336 17 -11 88 -56 158 -100 69 -44 145 -92 168 -107 24
-15 50 -31 58 -35 8 -5 80 -47 160 -94 80 -47 172 -101 205 -119 212 -118 364
-199 526 -282 401 -207 707 -363 757 -387 28 -14 52 -27 52 -30 0 -3 -14 -22
-31 -41 -32 -36 -156 -175 -174 -194 -5 -6 -50 -56 -100 -110 -49 -55 -97
-107 -105 -116 -8 -9 -51 -56 -95 -105 -44 -49 -89 -99 -100 -111 -11 -12 -49
-55 -85 -95 -36 -40 -84 -94 -107 -119 -23 -25 -50 -54 -60 -66 -16 -19 -66
-75 -243 -269 -30 -33 -91 -100 -135 -149 -44 -49 -85 -94 -90 -100 -6 -6 -68
-76 -140 -156 -71 -80 -132 -147 -135 -150 -3 -3 -37 -41 -75 -85 -74 -86
-114 -131 -130 -149 -101 -111 -444 -541 -616 -771 -57 -77 -107 -142 -111
-143 -5 -2 -8 -10 -8 -17 0 -7 -4 -15 -8 -17 -4 -1 -135 -183 -291 -403 -241
-340 -289 -415 -226 -350 6 5 28 25 50 44 33 28 160 141 199 176 6 6 65 57
131 115 66 58 122 107 125 110 3 3 43 39 90 80 47 41 90 79 96 85 6 5 55 51
110 100 188 171 260 241 539 520 331 331 456 463 720 759 39 44 81 91 95 105
14 14 59 64 100 111 41 47 78 87 81 90 6 5 250 276 394 436 81 90 102 114 139
154 22 25 79 88 126 140 47 52 90 100 95 106 12 13 166 183 180 198 6 6 47 53
93 103 l83 92 257 -131 c141 -72 276 -141 300 -155 24 -13 47 -21 52 -18 5 3
19 26 30 51 30 70 86 157 147 231 l54 67 -73 37 c-260 131 -463 239 -463 247
0 5 30 42 67 83 36 41 76 85 88 99 27 32 150 168 170 189 9 9 49 54 90 101 41
47 77 87 80 90 3 3 35 39 70 80 36 41 67 77 71 80 46 42 450 544 635 792 139
184 656 910 688 966 12 20 5 15 -89 -71z"/>
<path d="M3208 6225 c-2 -1 -50 -5 -108 -9 -58 -4 -116 -9 -130 -11 -14 -1
-50 -6 -80 -10 -97 -12 -104 -13 -190 -30 -456 -88 -857 -254 -1167 -484 -97
-71 -167 -130 -162 -135 7 -7 209 -86 218 -86 5 0 40 24 77 53 187 146 464
285 730 367 81 25 132 38 269 70 50 12 136 27 198 35 27 4 57 8 67 10 141 27
643 27 875 -1 233 -27 642 -127 816 -198 11 -5 42 17 103 75 47 45 86 85 86
88 0 13 -355 131 -436 145 -14 3 -40 9 -57 15 -32 10 -149 35 -217 46 -19 3
-46 7 -60 10 -66 12 -107 18 -220 30 -36 4 -81 9 -100 12 -41 4 -507 13 -512
8z"/>
<path d="M5262 5616 l-71 -94 62 -38 c130 -80 307 -223 438 -354 196 -195 340
-398 423 -597 64 -153 43 -138 186 -139 69 0 130 2 137 4 24 8 -94 296 -171
416 -20 31 -36 59 -36 61 0 11 -135 193 -189 255 -154 178 -345 344 -557 486
-77 52 -143 94 -145 94 -3 0 -38 -42 -77 -94z"/>
<path d="M965 5043 c-139 -261 -200 -570 -171 -867 12 -119 68 -347 105 -431
100 -220 165 -333 283 -487 100 -131 331 -357 477 -466 l124 -94 26 29 c87 98
131 149 131 154 0 3 -21 21 -47 39 -72 51 -203 161 -280 237 -287 282 -466
596 -538 947 -20 95 -23 135 -21 276 4 214 29 331 113 523 19 44 33 80 31 81
-11 9 -129 86 -160 104 l-36 23 -37 -68z"/>
<path d="M5270 4258 c-41 -5 -124 -26 -185 -46 -402 -133 -705 -422 -809 -772
-37 -125 -157 -582 -177 -675 -25 -114 -20 -282 9 -348 26 -58 110 -142 177
-179 28 -14 133 -54 235 -88 1001 -337 932 -311 955 -347 40 -60 37 -89 -40
-373 -2 -8 -18 -66 -35 -129 -35 -131 -48 -155 -127 -234 -99 -97 -222 -179
-291 -192 -9 -2 -328 -4 -708 -4 l-691 -1 -33 -123 c-72 -267 -102 -383 -106
-400 -2 -10 -6 -27 -9 -38 -6 -19 9 -19 800 -19 705 0 815 2 869 16 323 84
835 486 1000 785 27 48 57 146 126 404 107 395 119 454 117 550 -2 83 -27 142
-87 202 -58 59 -82 69 -615 254 -77 26 -212 73 -300 104 -88 31 -200 70 -250
87 -103 35 -156 60 -174 82 -25 30 -22 76 14 213 20 76 38 145 40 153 15 69
79 288 95 324 42 98 145 174 280 206 41 10 210 13 704 14 l650 1 73 270 c40
149 74 279 75 289 3 19 -13 20 -752 21 -415 1 -789 -2 -830 -7z"/>
<path d="M5177 3457 c-15 -30 -97 -316 -97 -336 0 -11 35 -27 310 -148 209
-92 453 -193 575 -238 33 -13 132 -50 220 -83 448 -169 757 -279 735 -262 -14
11 -97 69 -185 129 -88 59 -185 126 -216 147 -474 326 -868 572 -1250 782
l-77 42 -15 -33z"/>
<path d="M2560 2533 c-1 -5 -34 -44 -75 -87 l-75 -80 58 -24 c247 -101 648
-204 927 -237 215 -25 288 -29 505 -29 225 0 355 6 367 17 3 4 0 7 -8 7 -24 0
-150 88 -194 135 l-40 43 -195 6 c-107 3 -208 8 -225 10 -16 2 -64 8 -105 11
-41 4 -77 9 -80 10 -5 3 -58 12 -115 20 -138 18 -452 103 -644 174 -90 33
-101 35 -101 24z"/>
</g>
</svg>
