<svg width="524" height="128" version="1.1" viewBox="0 0 139 33.9" xmlns="http://www.w3.org/2000/svg">
 <path class="fill-primary" d="m17.5 2.55c-0.719-1e-3 -1.43 0.0351-2.14 0.109-3.34 0.349-6.46 1.55-8.66 3.55 0.402 0.155 0.804 0.31 1.2 0.471 1.9-1.63 4.54-2.63 7.47-2.93 2.8-0.293 5.85 0.0635 8.67 1.13 0.319-0.304 0.639-0.608 0.963-0.908-2.4-0.943-4.99-1.41-7.5-1.41zm10.1 2.68c-0.248 0.335-0.499 0.669-0.753 1 0.46 0.276 0.896 0.566 1.3 0.871 0.218-0.205 0.446-0.4 0.691-0.58 0.115-0.0844 0.234-0.163 0.353-0.24-0.494-0.372-1.03-0.722-1.59-1.05zm4.94 0.728c-0.593 0-1.17 0.11-1.74 0.33-0.562 0.203-1.09 0.483-1.57 0.838-0.485 0.356-0.898 0.762-1.24 1.22-0.343 0.457-0.582 0.939-0.718 1.45l-0.721 2.69c-0.272 1.02-0.26 1.76 0.0362 2.24 0.318 0.457 0.81 0.771 1.48 0.94l4.52 1.52c0.126 0.0339 0.229 0.127 0.306 0.279 0.0992 0.135 0.108 0.356 0.0258 0.66l-0.337 1.26c0.315 0.208 0.635 0.411 0.946 0.623a0.648 0.847 75.8 0 1 5.17e-4 1e-3l1.84 1.26c0.31-0.392 0.517-0.763 0.61-1.11l0.769-2.87c0.0499-0.186 0.087-0.389 0.112-0.609 0.0466-0.237 0.0489-0.466 0.0062-0.686-0.0426-0.22-0.149-0.424-0.319-0.61-0.166-0.203-0.419-0.364-0.76-0.483l-5.09-1.78c-0.219-0.0677-0.372-0.161-0.459-0.279s-0.0938-0.314-0.0212-0.584l0.592-2.21c0.141-0.525 0.399-0.889 0.775-1.09 0.376-0.203 0.759-0.304 1.15-0.304h5.79l0.721-2.69zm13.5 0c-0.593 0-1.17 0.11-1.74 0.33-0.562 0.203-1.09 0.483-1.57 0.838-0.485 0.356-0.898 0.762-1.24 1.22-0.343 0.457-0.582 0.939-0.718 1.45l-2.91 10.8c-0.0907 0.339-0.0343 0.728 0.169 1.17 0.204 0.44 0.491 0.855 0.86 1.24 0.374 0.373 0.788 0.694 1.24 0.965 0.457 0.254 0.888 0.381 1.29 0.381h6.27l0.721-2.69h-5.82c-0.431-0.0339-0.737-0.186-0.919-0.457-0.177-0.288-0.202-0.669-0.0749-1.14l2.7-10.1c0.141-0.525 0.399-0.889 0.775-1.09 0.376-0.203 0.759-0.304 1.15-0.304h5.59l0.721-2.69zm8.36 0-4.94 18.4h3.61l2.21-8.26h5.84l-2.21 8.26h3.61l4.94-18.4h-3.61l-2.01 7.49h-5.84l2.01-7.49zm19.9 0c-0.474 0-0.86 0.144-1.16 0.431-0.276 0.271-0.508 0.601-0.697 0.991l-8.7 17h3.51l2.66-5.38h5.79l-0.223 5.38h3.51l0.42-17c6e-3 -0.339-0.06-0.661-0.198-0.965-0.122-0.305-0.419-0.457-0.893-0.457zm10.9 0-4.94 18.4h10.9l0.721-2.69h-7.26l4.22-15.7zm14.4 0c-0.135 0-0.275 0.0168-0.42 0.0506-0.14 0.0169-0.283 0.0762-0.429 0.178l-1.83 1.24c-0.103 0.0677-0.195 0.161-0.278 0.28-0.0826 0.119-0.158 0.305-0.226 0.559l-4.32 16.1h10.9l0.721-2.69h-7.29l1.49-5.56h6.3l1.31-2.69h-6.88l1.29-4.8h7.29l0.721-2.69zm-94.8 2.48c-1.27 2.13-1.47 4.5-0.726 6.74 0.742 2.24 2.41 4.36 4.89 6.03l0.856-0.953c-2.24-1.55-3.74-3.48-4.4-5.48-0.636-1.92-0.507-3.89 0.444-5.66-0.356-0.223-0.708-0.449-1.06-0.676zm70.9 0.213h0.229l-0.227 7.67h-4.39l3.63-7.11c0.11-0.22 0.208-0.364 0.294-0.432 0.0904-0.0847 0.245-0.127 0.466-0.127zm-44.9 12.9c-0.162 0.0752-0.303 0.115-0.419 0.115h-6.35l-0.721 2.69h7.29c0.373 0 0.843-0.144 1.41-0.432 0.568-0.288 1.12-0.643 1.66-1.07 0.0724-0.0554 0.141-0.113 0.211-0.169l-2.13-0.776a0.648 0.847 75.8 0 1-0.0015-1e-3c-0.32-0.117-0.633-0.242-0.95-0.362zm-17.8 0.385-0.852 0.949c3.18 1.32 6.7 1.78 9.98 1.44 0.117-0.0122 0.232-0.0286 0.348-0.0429l0.301-1.12c-0.217 0.0308-0.435 0.0581-0.655 0.0811-2.95 0.308-6.18-0.104-9.12-1.3z"/>
 <path class="fill-secondary" d="m30.4 0-3.39 3.01a66.2 86.4 75.8 0 0-7.01 6.95l-2.06 2.3-4.38-2.22a66.1 86.4 75.8 0 0-8.76-3.8l-4.13-1.51 3.4 2.32a66.1 86.4 75.8 0 0 7.95 4.7l4.38 2.22-8.03 8.94a66.2 86.4 75.8 0 0-5.97 7.48l-2.45 3.49 3.39-3.01a66.1 86.3 75.8 0 0 7.01-6.95l8.03-8.94 5.04 2.56a66.1 86.4 75.8 0 0 8.76 3.8l4.13 1.51-3.4-2.32a66.1 86.4 75.8 0 0-7.95-4.7l-5.04-2.56 2.06-2.3a66.1 86.3 75.8 0 0 5.97-7.48zm87.2 11.3c-1.07 0-1.93 0.237-2.6 0.711-0.669 0.474-1.16 1.29-1.47 2.44l-1.47 5.49c-0.132 0.491-0.217 0.999-0.256 1.52-0.0345 0.508 0.0673 0.982 0.305 1.42 0.238 0.44 0.657 0.804 1.26 1.09 0.622 0.271 1.52 0.407 2.69 0.407h2.08l-0.306 1.14c-0.141 0.525-0.376 0.864-0.704 1.02-0.333 0.169-0.753 0.254-1.26 0.254h-4.37l-0.714 2.67h4.88c0.728 0 1.41-0.11 2.04-0.33 0.652-0.22 1.23-0.516 1.74-0.889 0.506-0.373 0.922-0.787 1.25-1.24 0.343-0.457 0.58-0.932 0.712-1.42l3.83-14.3zm13.4 0c-1.07 0-1.93 0.237-2.6 0.711-0.669 0.474-1.16 1.29-1.47 2.44l-1.47 5.49c-0.132 0.491-0.217 0.999-0.256 1.52-0.0345 0.508 0.0667 0.982 0.304 1.42 0.238 0.44 0.657 0.804 1.26 1.09 0.622 0.271 1.52 0.407 2.69 0.407h2.08l-0.306 1.14c-0.141 0.525-0.375 0.864-0.704 1.02-0.333 0.169-0.754 0.254-1.26 0.254h-4.37l-0.715 2.67h4.88c0.728 0 1.41-0.11 2.04-0.33 0.652-0.22 1.23-0.516 1.74-0.889 0.506-0.373 0.922-0.787 1.25-1.24 0.343-0.457 0.579-0.932 0.711-1.42l3.83-14.3zm-13 2.64h2.95l-2.08 7.77h-1.83c-0.254 0-0.489-8e-3 -0.704-0.0253-0.211-0.0339-0.394-0.11-0.548-0.229-0.133-0.135-0.218-0.322-0.256-0.559-0.0335-0.254 9e-3 -0.601 0.127-1.04l1.39-5.18c0.0908-0.339 0.222-0.542 0.392-0.61 0.175-0.0847 0.364-0.127 0.567-0.127zm13.4 0h2.95l-2.08 7.77h-1.83c-0.254 0-0.489-8e-3 -0.705-0.0253-0.211-0.0339-0.394-0.11-0.548-0.229-0.133-0.135-0.218-0.322-0.256-0.559-0.0335-0.254 9e-3 -0.601 0.127-1.04l1.39-5.18c0.0908-0.339 0.222-0.542 0.392-0.61 0.175-0.0847 0.364-0.127 0.567-0.127zm-25.2 7.75-0.885 3.3h3.61l0.885-3.3z"/>
</svg>
