<svg viewBox="0 0 24 24" fill="none" xmlns="http://www.w3.org/2000/svg">
<path fill-rule="evenodd" clip-rule="evenodd" d="M21 16.476C21 16.845 20.803 17.185 20.486 17.363C18.891 18.263 14.041 20.996 12.485 21.872C12.354 21.947 12.209 21.99 12.062 21.998C11.875 22.01 11.685 21.969 11.515 21.872C10.691 21.4081 8.94323 20.4234 7.24444 19.466L9.05869 20.4883L11.8751 13.0221L11.3753 13.0219L7.24444 19.466C5.73533 18.6154 4.26487 17.7864 3.515 17.363C3.197 17.185 3 16.845 3 16.476V9.66367L10.6573 11.5883L10.9288 11.2152L3 7.92701V7.525C3 7.156 3.197 6.816 3.515 6.638C5.109 5.739 9.959 3.004 11.515 2.128C11.666 2.043 11.833 2 12 2C12.167 2 12.334 2.043 12.485 2.128C13.0437 2.44252 14.027 2.99669 15.1318 3.61949L12.4163 10.0625H12.787L16.5391 4.41406L16.1048 4.16796C16.7426 4.52755 17.3911 4.89318 17.9985 5.23563L18.2416 5.37267L18.2434 5.37368L18.2475 5.37601L20.486 6.638C20.803 6.816 21 7.156 21 7.525V11.9339H13.5212L13.3794 12.2451L21 13.4999V16.476ZM16.1048 4.16796L15.1328 3.61719L15.1318 3.61949C15.4485 3.79802 15.7752 3.98218 16.1048 4.16796Z" fill="white"/>
</svg>
