<?xml version="1.0" encoding="UTF-8" standalone="no"?>
<svg
   xmlns:dc="http://purl.org/dc/elements/1.1/"
   xmlns:cc="http://creativecommons.org/ns#"
   xmlns:rdf="http://www.w3.org/1999/02/22-rdf-syntax-ns#"
   xmlns:svg="http://www.w3.org/2000/svg"
   xmlns="http://www.w3.org/2000/svg"
   clip-rule="evenodd"
   fill-rule="evenodd"
   stroke-linejoin="round"
   stroke-miterlimit="2"
   viewBox="0 0 24 24"
   version="1.1"
   id="svg22">
  <metadata
     id="metadata28">
    <rdf:RDF>
      <cc:Work
         rdf:about="">
        <dc:format>image/svg+xml</dc:format>
        <dc:type
           rdf:resource="http://purl.org/dc/dcmitype/StillImage" />
        <dc:title></dc:title>
      </cc:Work>
    </rdf:RDF>
  </metadata>
  <defs
     id="defs26" />
  <path
     d="m 21.000017,16.475983 c 0,0.369 -0.197,0.709 -0.514,0.887 -1.595,0.9 -6.445,3.633 -8.001,4.509 -0.131,0.075 -0.276,0.118 -0.423,0.126 -0.187,0.012 -0.377,-0.029 -0.547,-0.126 -1.5560003,-0.876 -6.4060003,-3.609 -8.0000003,-4.509 -0.318,-0.178 -0.515,-0.518 -0.515,-0.887 V 7.5249833 c 0,-0.369 0.197,-0.709 0.515,-0.887 1.594,-0.899 6.444,-3.634 8.0000003,-4.51 0.151,-0.085 0.318,-0.128 0.485,-0.128 0.167,0 0.334,0.043 0.485,0.128 1.556,0.876 6.406,3.611 8.001,4.51 0.317,0.178 0.514,0.518 0.514,0.887 z"
     fill-rule="nonzero"
     id="path20"
     style="fill:#000000;opacity:0.4" />
  <path
     d="m 21.000017,16.475983 c 0,0.369 -0.197,0.709 -0.514,0.887 -1.595,0.9 -6.445,3.633 -8.001,4.509 -0.131,0.075 -0.276,0.118 -0.423,0.126 -0.187,0.012 -0.377,-0.029 -0.547,-0.126 -1.5560005,-0.876 -6.4060006,-3.609 -8.0000006,-4.509 -0.318,-0.178 -0.515,-0.518 -0.515,-0.887 v -5.280411 c 0,-0.369 0.197,-0.709 0.515,-0.887 1.594,-0.8990003 6.4440001,-3.6340003 8.0000006,-4.5100003 0.151,-0.085 0.318,-0.128 0.485,-0.128 0.167,0 0.334,0.043 0.485,0.128 1.556,0.876 6.406,3.611 8.001,4.5100003 0.317,0.178 0.514,0.518 0.514,0.887 z"
     fill-rule="nonzero"
     id="path20-0"
     style="opacity:1;fill:#000000" />
</svg>
